# xmcd CD database file
#
# Track frame offsets:
#	150
#	25792
#	81659
#	101545
#	121576
#	147062
#	162146
#	200025
#	219608
#
# Disc length: 3186 seconds
#
# Revision: 0
# Processed by: cddbd v1.5.1PL0 Copyright (c) Steve Scherf et al.
# Submitted via: CDex 1.51
#
DISCID=770c7009
DTITLE=Biame Great Spirit - 93-D
DYEAR=1994
DGENRE=New Age
TTITLE0=Mourning Ceremony
TTITLE1=Fruits Of The Forest
TTITLE2=Garin Inna Namin (Oh! Great Mo
TTITLE3=Ruby's Lullaby
TTITLE4=Caravan Through Alice
TTITLE5=Kapin Ya (Eternal Voyage)
TTITLE6=March Of The Murries
TTITLE7=Spirit Of Ozz
TTITLE8=Message To Earth
EXTD=YEAR: 1994
EXTT0=
EXTT1=
EXTT2=
EXTT3=
EXTT4=
EXTT5=
EXTT6=
EXTT7=
EXTT8=
PLAYORDER=
